<svg fill="none" height="24" viewBox="0 0 24 24" width="24" xmlns="http://www.w3.org/2000/svg"><g clip-rule="evenodd" fill="#000" fill-rule="evenodd"><path d="m9 5.5c1.2094 0 2.2183.85884 2.45 1.99991h9.05c.2761 0 .5.22386.5.5 0 .27615-.2239.5-.5.5h-9.05c-.2316 1.14117-1.2405 2.00009-2.45 2.00009-1.20951 0-2.21841-.85892-2.45001-2.00009h-3.04999c-.27614 0-.5-.22385-.5-.5 0-.27614.22386-.5.5-.5h3.05002c.23167-1.14107 1.24053-1.99991 2.44998-1.99991zm1.5 2.5c0-.82843-.67158-1.5-1.5-1.5-.82843 0-1.5.67157-1.5 1.5s.67157 1.5 1.5 1.5c.82842 0 1.5-.67157 1.5-1.5z"/><path d="m15 13.5c1.2094 0 2.2183.8588 2.45 1.9999h3.05c.2761 0 .5.2239.5.5 0 .2762-.2239.5-.5.5h-3.05c-.2316 1.1412-1.2405 2.0001-2.45 2.0001s-2.2184-.8589-2.45-2.0001h-9.04998c-.27614 0-.5-.2238-.5-.5 0-.2761.22386-.5.5-.5h9.04998c.2317-1.1411 1.2405-1.9999 2.45-1.9999zm1.5 2.5c0-.8284-.6716-1.5-1.5-1.5s-1.5.6716-1.5 1.5.6716 1.5 1.5 1.5 1.5-.6716 1.5-1.5z"/></g></svg>